<?xml version="1.0" encoding="UTF-8"?>
<svg version="1.1" xmlns="http://www.w3.org/2000/svg" width="428" height="583">
<path d="M0 0 C0.40421697 14.64163708 -0.56646295 28.56030735 -3 43 C-3.13390137 43.83354004 -3.26780273 44.66708008 -3.40576172 45.52587891 C-5.10403556 55.90696375 -7.70535364 65.82149822 -11 75.8125 C-11.33217529 76.82103027 -11.66435059 77.82956055 -12.0065918 78.86865234 C-16.82705854 92.94503127 -16.82705854 92.94503127 -23.125 97.5 C-23.91390625 98.07621094 -24.7028125 98.65242188 -25.515625 99.24609375 C-26.33546875 99.82488281 -27.1553125 100.40367187 -28 101 C-28.79921875 101.58910156 -29.5984375 102.17820312 -30.421875 102.78515625 C-36.35254424 107.08205833 -42.52073631 110.60493127 -49 114 C-51.0400543 115.08697282 -53.07820848 116.17746414 -55.11645508 117.26782227 C-58.07530054 118.84961693 -61.0376096 120.42485585 -64 122 C-63.31897217 122.01458252 -62.63794434 122.02916504 -61.9362793 122.04418945 C-58.85277785 122.11862696 -55.77036433 122.21530083 -52.6875 122.3125 C-51.61564453 122.33505859 -50.54378906 122.35761719 -49.43945312 122.38085938 C-47.89741211 122.4340332 -47.89741211 122.4340332 -46.32421875 122.48828125 C-45.37635498 122.51446533 -44.42849121 122.54064941 -43.4519043 122.56762695 C-40.62269264 123.06653503 -39.6609225 123.68393779 -38 126 C-38.19724848 130.02386905 -39.79246035 132.54929537 -42.125 135.75 C-42.75148438 136.60980469 -43.37796875 137.46960938 -44.0234375 138.35546875 C-44.67570313 139.22816406 -45.32796875 140.10085937 -46 141 C-46.63164062 141.86238281 -47.26328125 142.72476563 -47.9140625 143.61328125 C-52.60214387 149.86738129 -52.60214387 149.86738129 -56 151 C-56.68170862 152.32570569 -57.34564554 153.6605813 -58 155 C-59.38868013 156.52509271 -60.83179259 158.0015871 -62.3125 159.4375 C-63.07175781 160.17871094 -63.83101562 160.91992188 -64.61328125 161.68359375 C-65.40089844 162.44800781 -66.18851563 163.21242187 -67 164 C-67.763125 164.79792969 -68.52625 165.59585938 -69.3125 166.41796875 C-72.57041745 169.54803188 -76.05514013 172.19789247 -79.6875 174.875 C-80.75967773 175.66825684 -80.75967773 175.66825684 -81.85351562 176.47753906 C-83.26970607 177.52270042 -84.6874632 178.56574294 -86.10693359 179.60644531 C-87.65021537 180.74251088 -89.18059157 181.89609114 -90.70703125 183.0546875 C-97.35206941 187.96771401 -104.60747501 191.49044665 -112.03540039 195.04614258 C-114.01991522 196.00966929 -115.97931941 197.01515969 -117.94140625 198.0234375 C-128.28518789 203.20161404 -139.54614768 206.79180157 -150.6875 209.8125 C-151.38528564 210.00706787 -152.08307129 210.20163574 -152.80200195 210.40209961 C-166.44627327 213.92835643 -180.24086669 214.30454513 -194.24194336 214.20581055 C-196.98625677 214.1871688 -199.7302383 214.1853042 -202.47460938 214.18554688 C-204.22135711 214.18064379 -205.96810257 214.17482083 -207.71484375 214.16796875 C-208.53444077 214.16685593 -209.35403778 214.1657431 -210.19847107 214.16459656 C-215.88382308 214.11617692 -215.88382308 214.11617692 -217 213 C-217.125 209.5 -217.125 209.5 -217 206 C-216 205 -216 205 -213.97241211 204.91821289 C-213.08303955 204.9361792 -212.19366699 204.95414551 -211.27734375 204.97265625 C-210.27598389 204.98659424 -209.27462402 205.00053223 -208.24291992 205.01489258 C-207.15213135 205.03060303 -206.06134277 205.04631348 -204.9375 205.0625 C-171.98832501 205.23988771 -140.45348395 199.27217686 -111 184 C-111.53882813 184.144375 -112.07765625 184.28875 -112.6328125 184.4375 C-119.63909518 186.01885534 -126.47603479 186.19210555 -133.625 186.1875 C-134.62160645 186.18814453 -135.61821289 186.18878906 -136.64501953 186.18945312 C-143.8653311 186.1346689 -143.8653311 186.1346689 -145 185 C-145.125 181.5 -145.125 181.5 -145 178 C-143.27754058 176.27754058 -140.92153468 176.68708202 -138.56640625 176.53515625 C-137.44169922 176.45716797 -136.31699219 176.37917969 -135.15820312 176.29882812 C-132.79632784 176.14359352 -130.43435071 175.98989946 -128.07226562 175.83789062 C-117.55666783 175.10424427 -107.89321756 173.14689074 -97.8125 170.125 C-96.96236328 169.88136719 -96.11222656 169.63773438 -95.23632812 169.38671875 C-91.2461441 168.1973666 -87.66055665 166.94086883 -84.07421875 164.8046875 C-81 163 -81 163 -78 163 C-77.67 162.01 -77.34 161.02 -77 160 C-76.34 160 -75.68 160 -75 160 C-74.67 159.01 -74.34 158.02 -74 157 C-73.34 157 -72.68 157 -72 157 C-71.67 156.01 -71.34 155.02 -71 154 C-69.36916342 152.29825748 -67.69647455 150.63631588 -66 149 C-64.30068024 147.17761702 -62.61323881 145.34408969 -60.9375 143.5 C-60.10089844 142.5821875 -59.26429688 141.664375 -58.40234375 140.71875 C-56.18108165 138.20493143 -54.08524352 135.62657571 -52 133 C-53.1960083 132.98018066 -54.3920166 132.96036133 -55.62426758 132.93994141 C-60.05807694 132.86391728 -64.49155674 132.77519503 -68.92504883 132.68261719 C-70.84457904 132.64431423 -72.76418135 132.60946367 -74.68383789 132.578125 C-77.4418313 132.53250298 -80.19932777 132.4745042 -82.95703125 132.4140625 C-83.81649857 132.40251129 -84.67596588 132.39096008 -85.56147766 132.37905884 C-86.36208115 132.35918915 -87.16268463 132.33931946 -87.98754883 132.31884766 C-88.6914827 132.30552399 -89.39541656 132.29220032 -90.12068176 132.2784729 C-92 132 -92 132 -95 130 C-95.1875 127.3125 -95.1875 127.3125 -94 124 C-89.63276757 121.16585675 -84.61766322 119.60564686 -79.765625 117.7890625 C-73.46213015 115.4214819 -67.59781675 112.86511899 -61.74609375 109.52734375 C-58.88082747 107.9337177 -55.96119018 106.53127951 -53 105.125 C-46.80733883 102.0688815 -41.48404327 98.1639747 -36 94 C-30.42458101 90 -30.42458101 90 -28 90 C-23.74090448 81.53834563 -20.63266543 73.10863806 -18 64 C-17.58075191 62.59895153 -17.16148004 61.19791017 -16.7421875 59.796875 C-11.57787427 42.24711066 -9.52242688 25.26692606 -9 7 C-33.28101175 12.55554777 -56.47935427 20.92508171 -76.04296875 36.7265625 C-79 39 -79 39 -81 39 C-81 39.66 -81 40.32 -81 41 C-82.3984375 42.375 -82.3984375 42.375 -84.375 44 C-91.82636969 50.36801452 -98.74050577 56.78312771 -103.74609375 65.28515625 C-105 67 -105 67 -108 68 C-110.6875 66.0625 -110.6875 66.0625 -113 64 C-112.67 62.35 -112.34 60.7 -112 59 C-111.34 59 -110.68 59 -110 59 C-109.34 57.35 -108.68 55.7 -108 54 C-131.17301189 65.06614778 -131.17301189 65.06614778 -151.0625 81 C-152.0215625 81.99 -152.0215625 81.99 -153 83 C-153.66 83 -154.32 83 -155 83 C-155 83.66 -155 84.32 -155 85 C-156.51875164 86.28282906 -158.09178175 87.50177651 -159.6875 88.6875 C-164.1365649 92.14649131 -166.91601245 95.32996171 -170 100 C-171.13695312 101.13501953 -171.13695312 101.13501953 -172.296875 102.29296875 C-175.25009429 105.2504557 -177.85441063 108.34580069 -180.4375 111.625 C-181.15873047 112.54043579 -181.15873047 112.54043579 -181.89453125 113.47436523 C-185.34856862 117.95119442 -188.22629872 122.5422801 -190.78125 127.59765625 C-192.07437958 130.1466136 -193.51829071 132.5560943 -195 135 C-202.60523931 148.02133723 -207.46772972 161.35923486 -211 176 C-210.278125 175.113125 -209.55625 174.22625 -208.8125 173.3125 C-206.39604522 170.3437127 -203.70758114 167.70358176 -201 165 C-199.27975447 163.15687979 -197.571444 161.30255082 -195.875 159.4375 C-195.02679688 158.50808594 -194.17859375 157.57867187 -193.3046875 156.62109375 C-191.02223697 154.1120423 -191.02223697 154.1120423 -189.3203125 151.66015625 C-188.66675781 150.83837891 -188.66675781 150.83837891 -188 150 C-187.34 150 -186.68 150 -186 150 C-185.72905518 149.4030835 -185.45811035 148.80616699 -185.17895508 148.19116211 C-184.01563082 146.02905086 -182.88073546 144.64906014 -181.13671875 142.94140625 C-180.57919922 142.39033203 -180.02167969 141.83925781 -179.44726562 141.27148438 C-178.57618164 140.42553711 -178.57618164 140.42553711 -177.6875 139.5625 C-177.11837891 139.00240234 -176.54925781 138.44230469 -175.96289062 137.86523438 C-174.83757893 136.75801035 -173.71048842 135.65259102 -172.58154297 134.54907227 C-169.59602867 131.62485365 -166.65103774 128.66107086 -163.71875 125.68359375 C-157.54391144 119.43265683 -157.54391144 119.43265683 -154.25 116.8125 C-151.82292435 114.98945356 -151.82292435 114.98945356 -149.6875 112.125 C-146.65681348 108.35788498 -142.90090281 105.80420771 -139 103 C-137.36811136 101.77999379 -135.74307448 100.55076922 -134.125 99.3125 C-133.38507813 98.75175781 -132.64515625 98.19101563 -131.8828125 97.61328125 C-129.77290173 95.95283851 -129.77290173 95.95283851 -128 93 C-127.34 93 -126.68 93 -126 93 C-126 92.34 -126 91.68 -126 91 C-124.02792206 89.52394776 -122.0579651 88.15887175 -120 86.8125 C-116.1706536 84.24471221 -112.50436804 81.71657684 -109.125 78.5625 C-104.61967334 74.47605702 -99.56010251 71.27358588 -94.484375 67.95703125 C-91.10966376 65.7480593 -87.77581171 63.48569507 -84.453125 61.19921875 C-83.48971191 60.53664062 -82.52629883 59.8740625 -81.53369141 59.19140625 C-79.63824113 57.8855597 -77.74459276 56.57709259 -75.85302734 55.265625 C-71.00670399 51.93559276 -66.13614521 48.85326509 -60.96044922 46.0612793 C-57.67931148 44.28505193 -54.53032971 42.2957434 -51.359375 40.33203125 C-48.96612812 38.98087697 -46.57142287 37.96200395 -44 37 C-41.9375 39.8125 -41.9375 39.8125 -40 43 C-41 46 -41 46 -44.5 47.8125 C-45.22574219 48.1528125 -45.95148438 48.493125 -46.69921875 48.84375 C-49.84937874 50.42685248 -52.67723624 52.37916716 -55.5859375 54.36328125 C-58.17659181 56.1197281 -60.7988889 57.81649179 -63.4375 59.5 C-64.26121094 60.0259375 -65.08492187 60.551875 -65.93359375 61.09375 C-67.69217584 62.1869832 -69.45841596 63.26853923 -71.24511719 64.31518555 C-77.22646442 67.82751527 -82.83030841 71.64922871 -88.375 75.8125 C-89.61262085 76.73325317 -89.61262085 76.73325317 -90.87524414 77.67260742 C-93.25365292 79.44379259 -95.62744964 81.22097874 -98 83 C-99.15741825 83.86476248 -100.31495328 84.72936872 -101.47265625 85.59375 C-103.39063026 87.02907179 -105.3061662 88.46765976 -107.21875 89.91015625 C-109.2111734 91.40727215 -111.21219878 92.89296682 -113.21875 94.37109375 C-113.75701416 94.76901123 -114.29527832 95.16692871 -114.84985352 95.5769043 C-116.33418329 96.67366034 -117.8212868 97.76665969 -119.30859375 98.859375 C-122.09053101 101.07200434 -124.5017727 103.47449097 -127 106 C-128.85298865 107.60903776 -130.7282008 109.19284804 -132.625 110.75 C-134.03652344 111.91789062 -134.03652344 111.91789062 -135.4765625 113.109375 C-138 115 -138 115 -141 116 C-141.495 117.485 -141.495 117.485 -142 119 C-143.97956942 120.69088222 -145.97945196 122.35830472 -148 124 C-148.33 124.66 -148.66 125.32 -149 126 C-149.66 126 -150.32 126 -151 126 C-151 126.66 -151 127.32 -151 128 C-152.72265625 129.48046875 -152.72265625 129.48046875 -155.0625 131.1875 C-161.5113136 136.07204739 -166.73074181 141.65212503 -171.984375 147.76953125 C-174.38924981 150.43073961 -176.93764116 152.93013856 -179.5 155.4375 C-183.38331822 159.25367339 -186.81663163 163.1930618 -190.0625 167.5625 C-192.52590502 170.66162245 -195.21963341 173.49950302 -197.9375 176.375 C-202.41175331 181.1311831 -206.38332391 186.01916012 -210.1328125 191.37890625 C-212.03571961 194.05014196 -214.05081059 196.58509637 -216.125 199.125 C-219.72468588 203.56413832 -222.92852021 208.18336124 -226 213 C-222.81761295 215.12159137 -220.36771804 215.83305352 -216.6875 216.8125 C-209.31019192 218.85106793 -202.17559769 221.33914006 -195 224 C-195.495 227.96 -195.495 227.96 -196 232 C-200.00385146 233.62922679 -203.1792332 232.2146918 -207.03125 230.83984375 C-208.41269258 230.37154464 -209.79420515 229.90345194 -211.17578125 229.43554688 C-213.34335314 228.68735322 -215.50910679 227.93431129 -217.67333984 227.17651367 C-219.76769506 226.4474118 -221.86761543 225.73662603 -223.96875 225.02734375 C-224.6136438 224.79514633 -225.2585376 224.56294891 -225.92297363 224.32371521 C-228.73258467 223.38204647 -230.48420042 222.83226335 -233.35058594 223.7644043 C-235.35553885 225.26633838 -236.42521886 226.74755735 -237.75 228.875 C-238.26046875 229.679375 -238.7709375 230.48375 -239.296875 231.3125 C-239.85890625 232.199375 -240.4209375 233.08625 -241 234 C-242.3313198 235.95970274 -243.66474099 237.91797916 -245 239.875 C-248.69626897 245.41234951 -251.88603125 251.12215366 -255 257 C-256.3151523 259.34440192 -257.65518315 261.67243237 -259 264 C-262.14624993 264.26218749 -263.61837017 264.24754367 -266.3125 262.5 C-267.1478125 261.7575 -267.1478125 261.7575 -268 261 C-267.34134932 257.24391099 -265.65208182 254.57696189 -263.625 251.375 C-262.90538528 250.23361764 -262.18669067 249.09165484 -261.46875 247.94921875 C-261.076875 247.32708496 -260.685 246.70495117 -260.28125 246.06396484 C-258.85892448 243.77274154 -257.4743508 241.4611249 -256.09375 239.14453125 C-255.60181152 238.32355957 -255.10987305 237.50258789 -254.60302734 236.65673828 C-253.62420489 235.02148716 -252.65049245 233.38316554 -251.68212891 231.74169922 C-251.23272949 230.99549316 -250.78333008 230.24928711 -250.3203125 229.48046875 C-249.92086426 228.80910889 -249.52141602 228.13774902 -249.10986328 227.44604492 C-248.7436084 226.9688501 -248.37735352 226.49165527 -248 226 C-247.34 226 -246.68 226 -246 226 C-245.8875293 225.41420166 -245.77505859 224.82840332 -245.65917969 224.22485352 C-244.94387628 221.81057205 -243.92107878 220.43220754 -242.453125 218.40234375 C-238.31883865 211.14354818 -239.5153507 202.63966781 -239.75 194.5625 C-239.80000931 192.07573913 -239.84288017 189.5889956 -239.88165283 187.10203552 C-239.90802079 185.56270113 -239.94220742 184.02347641 -239.98504639 182.48451233 C-240.10854619 177.21709238 -240.10854619 177.21709238 -239 175 C-232.84765625 174.90234375 -232.84765625 174.90234375 -231 175 C-229.31699331 176.68300669 -229.77190923 178.82008727 -229.68359375 181.12890625 C-229.64169922 182.16337891 -229.59980469 183.19785156 -229.55664062 184.26367188 C-229.51732422 185.35228516 -229.47800781 186.44089844 -229.4375 187.5625 C-229.37272461 189.2012207 -229.37272461 189.2012207 -229.30664062 190.87304688 C-229.20017932 193.58189564 -229.09816484 196.29083992 -229 199 C-226.12038221 195.06161364 -224.51285439 192.16002607 -223.9375 187.3125 C-220.23567651 161.46301461 -208.94195531 136.79139873 -195 115 C-194.46004395 114.1440625 -193.92008789 113.288125 -193.36376953 112.40625 C-192.83251465 111.58125 -192.30125977 110.75625 -191.75390625 109.90625 C-191.27381104 109.15666016 -190.79371582 108.40707031 -190.29907227 107.63476562 C-189.87037842 107.09529297 -189.44168457 106.55582031 -189 106 C-188.34 106 -187.68 106 -187 106 C-186.74863281 105.44183594 -186.49726563 104.88367188 -186.23828125 104.30859375 C-182.79892167 97.89641233 -177.45600025 91.81411787 -172 87 C-171.34 87 -170.68 87 -170 87 C-169.773125 86.443125 -169.54625 85.88625 -169.3125 85.3125 C-167.62449964 82.33840412 -165.53323483 80.27991135 -163 78 C-162.34 78 -161.68 78 -161 78 C-160.505 76.515 -160.505 76.515 -160 75 C-158.09615765 73.33819652 -156.20914975 71.8173522 -154.1875 70.3125 C-153.60436035 69.87188232 -153.0212207 69.43126465 -152.42041016 68.97729492 C-146.76874464 64.74808994 -140.93187267 60.82470611 -135 57 C-134.03835937 56.36964844 -133.07671875 55.73929688 -132.0859375 55.08984375 C-122.49981465 48.87074752 -112.76319266 44.35360099 -101.98046875 40.58984375 C-101.27277344 40.3376709 -100.56507813 40.08549805 -99.8359375 39.82568359 C-98.43526554 39.32812671 -97.03040095 38.84217308 -95.62109375 38.36962891 C-90.99859967 36.71695078 -88.22211816 34.67239601 -85 31 C-82.875 28.6875 -82.875 28.6875 -81 27 C-80.01 27 -79.02 27 -78 27 C-78 26.34 -78 25.68 -78 25 C-77.12730469 24.57976562 -76.25460938 24.15953125 -75.35546875 23.7265625 C-72.19544983 22.10056906 -69.29161156 20.30804168 -66.3125 18.375 C-49.73090469 8.08663791 -33.20091402 2.52248202 -14 -1 C-13.22962402 -1.14695312 -12.45924805 -1.29390625 -11.66552734 -1.4453125 C-7.22347723 -2.16968569 -4.13659768 -1.75805401 0 0 Z " fill="#4F4F4F" transform="translate(322,89)"/>
<path d="M0 0 C2.0625 1.6875 2.0625 1.6875 3 4 C3.48997064 9.04882788 2.40627081 11.68606559 -0.375 15.875 C-1.00148438 16.84179688 -1.62796875 17.80859375 -2.2734375 18.8046875 C-3.12808594 19.89136719 -3.12808594 19.89136719 -4 21 C-4.66 21 -5.32 21 -6 21 C-6 21.66 -6 22.32 -6 23 C1.55926604 22.71741062 7.28940663 21.44533148 14 18 C19.97977818 14.97421173 24.24008066 13.40702462 31 14 C31.99 14.495 31.99 14.495 33 15 C33.309375 16.2065625 33.309375 16.2065625 33.625 17.4375 C34.83375772 20.40305566 34.83375772 20.40305566 38.57118225 21.14122009 C42.81896341 22.0803023 46.89828711 22.29941786 51.23608398 22.30297852 C52.40585533 22.31563751 52.40585533 22.31563751 53.59925842 22.32855225 C56.14821044 22.354113 58.69704732 22.36641469 61.24609375 22.37890625 C63.02589314 22.39509567 64.80568377 22.41227717 66.58546448 22.43040466 C71.24893147 22.47590197 75.91241033 22.510817 80.57598877 22.54260254 C88.06477895 22.59467569 95.55344144 22.65946876 103.04207039 22.73081779 C105.65958108 22.75369637 108.27707519 22.76993 110.89463806 22.78553772 C112.48631989 22.79893561 114.07799992 22.81254964 115.66967773 22.82641602 C116.40157318 22.82902939 117.13346863 22.83164276 117.88754272 22.83433533 C122.88635207 22.88635207 122.88635207 22.88635207 124 24 C124.1328125 25.8125 124.1328125 25.8125 124.125 28 C124.12757813 28.721875 124.13015625 29.44375 124.1328125 30.1875 C124 32 124 32 123 33 C120.76854495 33.10498357 118.53371795 33.13857547 116.29980469 33.14526367 C115.24826202 33.15030159 115.24826202 33.15030159 114.17547607 33.15544128 C111.84092463 33.16499242 109.50644481 33.1668976 107.171875 33.16796875 C105.54534882 33.17118251 103.91882293 33.17454668 102.29229736 33.17805481 C98.86901176 33.18405927 95.44575143 33.18589377 92.02246094 33.18530273 C87.66860603 33.18520196 83.31491733 33.19875949 78.96110153 33.21607494 C75.59270511 33.2272927 72.22434732 33.22921884 68.85593414 33.22869301 C67.25342495 33.2298621 65.65091439 33.23422265 64.04842377 33.24202538 C35.65525498 33.36714112 35.65525498 33.36714112 27.0625 26.4375 C26 25 26 25 26 23 C25.44014404 23.2673999 24.88028809 23.5347998 24.3034668 23.81030273 C21.7656673 25.02117233 19.22660196 26.22936412 16.6875 27.4375 C15.36588867 28.06881836 15.36588867 28.06881836 14.01757812 28.71289062 C13.17001953 29.11572266 12.32246094 29.51855469 11.44921875 29.93359375 C10.66893311 30.30540771 9.88864746 30.67722168 9.0847168 31.06030273 C3.50520352 33.57529824 -1.96954287 33.60463686 -8 33 C-10.85652452 31.82315469 -12.80800129 30.19199871 -15 28 C-15.51019636 23.06810186 -15.55446522 20.23139536 -12.5625 16.1875 C-12.11003906 15.64480469 -11.65757812 15.10210937 -11.19140625 14.54296875 C-9.78063213 12.89106895 -9.78063213 12.89106895 -9 10 C-19.30697611 10.71801407 -27.81004507 15.49786126 -36.89599609 19.98144531 C-40.84373792 21.89255913 -44.90028806 23.4533212 -49 25 C-49.99902344 25.40863281 -50.99804688 25.81726563 -52.02734375 26.23828125 C-62.40783672 30.42257033 -72.70394514 33.75307032 -84 33 C-85 32 -85 32 -85.1328125 30.1875 C-85.13023438 29.465625 -85.12765625 28.74375 -85.125 28 C-85.12757812 27.278125 -85.13015625 26.55625 -85.1328125 25.8125 C-85 24 -85 24 -84 23 C-82.10762741 22.81458869 -80.21048989 22.67689299 -78.3125 22.5625 C-73.85955751 22.22642887 -70.19182384 21.5835779 -66 20 C-64.62741847 19.71716502 -63.25205333 19.44769189 -61.875 19.1875 C-53.60695178 17.37457248 -46.1776941 13.6893555 -38.80371094 9.63500977 C-30.67127414 5.16508569 -23.11819245 2.02626499 -14 0 C-13.14148438 -0.19980469 -12.28296875 -0.39960938 -11.3984375 -0.60546875 C-7.49321347 -1.24785902 -3.83655273 -0.94620183 0 0 Z " fill="#505050" transform="translate(161,323)"/>
<path d="M0 0 C3 1 3 1 4.75 3.375 C6 6 6 6 5 9 C3.11469847 9.97631687 1.2230387 10.94237173 -0.69921875 11.84375 C-3.84937874 13.42685248 -6.67723624 15.37916716 -9.5859375 17.36328125 C-12.17659181 19.1197281 -14.7988889 20.81649179 -17.4375 22.5 C-18.26121094 23.0259375 -19.08492187 23.551875 -19.93359375 24.09375 C-21.69217584 25.1869832 -23.45841596 26.26853923 -25.24511719 27.31518555 C-31.22646442 30.82751527 -36.83030841 34.64922871 -42.375 38.8125 C-43.20008057 39.42633545 -44.02516113 40.0401709 -44.87524414 40.67260742 C-47.25365292 42.44379259 -49.62744964 44.22097874 -52 46 C-53.15741825 46.86476248 -54.31495328 47.72936872 -55.47265625 48.59375 C-57.39063026 50.02907179 -59.3061662 51.46765976 -61.21875 52.91015625 C-63.2111734 54.40727215 -65.21219878 55.89296682 -67.21875 57.37109375 C-67.75701416 57.76901123 -68.29527832 58.16692871 -68.84985352 58.5769043 C-70.33418329 59.67366034 -71.8212868 60.76665969 -73.30859375 61.859375 C-76.09053101 64.07200434 -78.5017727 66.47449097 -81 69 C-82.85298865 70.60903776 -84.7282008 72.19284804 -86.625 73.75 C-88.03652344 74.91789062 -88.03652344 74.91789062 -89.4765625 76.109375 C-92 78 -92 78 -95 79 C-95.495 80.485 -95.495 80.485 -96 82 C-97.97956942 83.69088222 -99.97945196 85.35830472 -102 87 C-102.33 87.66 -102.66 88.32 -103 89 C-103.66 89 -104.32 89 -105 89 C-105 89.66 -105 90.32 -105 91 C-106.72265625 92.48046875 -106.72265625 92.48046875 -109.0625 94.1875 C-115.50968189 99.07081148 -120.72905514 104.6488543 -125.98046875 110.765625 C-128.4064827 113.44972554 -130.97780419 115.97087971 -133.5625 118.5 C-137.84311307 122.72754762 -141.62096423 127.02412032 -145 132 C-145.99 131.01 -146.98 130.02 -148 129 C-147.01 128.67 -146.02 128.34 -145 128 C-145.495 127.54625 -145.99 127.0925 -146.5 126.625 C-148 125 -148 125 -148 123 C-148.66 122.67 -149.32 122.34 -150 122 C-148.71520959 120.49410612 -147.42195918 118.99542625 -146.125 117.5 C-145.04605469 116.24703125 -145.04605469 116.24703125 -143.9453125 114.96875 C-142.98238281 113.99421875 -142.98238281 113.99421875 -142 113 C-141.34 113 -140.68 113 -140 113 C-139.72905518 112.4030835 -139.45811035 111.80616699 -139.17895508 111.19116211 C-138.01563082 109.02905086 -136.88073546 107.64906014 -135.13671875 105.94140625 C-134.57919922 105.39033203 -134.02167969 104.83925781 -133.44726562 104.27148438 C-132.57618164 103.42553711 -132.57618164 103.42553711 -131.6875 102.5625 C-131.11837891 102.00240234 -130.54925781 101.44230469 -129.96289062 100.86523438 C-128.83757893 99.75801035 -127.71048842 98.65259102 -126.58154297 97.54907227 C-123.59602867 94.62485365 -120.65103774 91.66107086 -117.71875 88.68359375 C-111.54391144 82.43265683 -111.54391144 82.43265683 -108.25 79.8125 C-105.82292435 77.98945356 -105.82292435 77.98945356 -103.6875 75.125 C-100.65681348 71.35788498 -96.90090281 68.80420771 -93 66 C-91.36811136 64.77999379 -89.74307448 63.55076922 -88.125 62.3125 C-87.38507813 61.75175781 -86.64515625 61.19101563 -85.8828125 60.61328125 C-83.77290173 58.95283851 -83.77290173 58.95283851 -82 56 C-81.34 56 -80.68 56 -80 56 C-80 55.34 -80 54.68 -80 54 C-78.02792206 52.52394776 -76.0579651 51.15887175 -74 49.8125 C-70.1706536 47.24471221 -66.50436804 44.71657684 -63.125 41.5625 C-58.61967334 37.47605702 -53.56010251 34.27358588 -48.484375 30.95703125 C-45.10966376 28.7480593 -41.77581171 26.48569507 -38.453125 24.19921875 C-37.00800537 23.20535156 -37.00800537 23.20535156 -35.53369141 22.19140625 C-33.63824113 20.8855597 -31.74459276 19.57709259 -29.85302734 18.265625 C-24.3842603 14.50789584 -18.83807544 11.14630721 -13 8 C-11.2015917 6.94895135 -9.40836867 5.88886977 -7.625 4.8125 C-6.40683594 4.07966797 -6.40683594 4.07966797 -5.1640625 3.33203125 C-3.41948382 2.25820213 -1.70451829 1.13634553 0 0 Z " fill="#535353" transform="translate(276,126)"/>
<path d="M0 0 C-0.875 4.75 -0.875 4.75 -2 7 C-0.68 7.33 0.64 7.66 2 8 C2.41015625 10.2265625 2.41015625 10.2265625 2 13 C-0.19905657 14.76548371 -2.11863486 16.03692097 -4.5625 17.375 C-5.2421582 17.76220215 -5.92181641 18.1494043 -6.62207031 18.54833984 C-22.40538305 27.39413279 -39.23676665 34.0633408 -56.6875 38.8125 C-57.38584961 39.00730957 -58.08419922 39.20211914 -58.80371094 39.40283203 C-72.44812906 42.92727777 -86.24103373 43.30454395 -100.24194336 43.20581055 C-102.98625677 43.1871688 -105.7302383 43.1853042 -108.47460938 43.18554688 C-110.22135711 43.18064379 -111.96810257 43.17482083 -113.71484375 43.16796875 C-114.53444077 43.16685593 -115.35403778 43.1657431 -116.19847107 43.16459656 C-121.88382308 43.11617692 -121.88382308 43.11617692 -123 42 C-123.125 38.5 -123.125 38.5 -123 35 C-122 34 -122 34 -119.97241211 33.91821289 C-119.08303955 33.9361792 -118.19366699 33.95414551 -117.27734375 33.97265625 C-116.27598389 33.98659424 -115.27462402 34.00053223 -114.24291992 34.01489258 C-113.15213135 34.03060303 -112.06134277 34.04631348 -110.9375 34.0625 C-77.98832501 34.23988771 -46.45348395 28.27217686 -17 13 C-17.53882813 13.144375 -18.07765625 13.28875 -18.6328125 13.4375 C-25.63909518 15.01885534 -32.47603479 15.19210555 -39.625 15.1875 C-40.62160645 15.18814453 -41.61821289 15.18878906 -42.64501953 15.18945312 C-49.8653311 15.1346689 -49.8653311 15.1346689 -51 14 C-51.125 10.5 -51.125 10.5 -51 7 C-49.27754058 5.27754058 -46.92153468 5.68708202 -44.56640625 5.53515625 C-43.44169922 5.45716797 -42.31699219 5.37917969 -41.15820312 5.29882812 C-38.79632784 5.14359352 -36.43435071 4.98989946 -34.07226562 4.83789062 C-25.71599166 4.25489477 -17.83618734 3.02708384 -9.75 0.875 C-6.32993426 0.07698466 -3.49011626 -0.17450581 0 0 Z " fill="#4A4A4A" transform="translate(228,260)"/>
<path d="M0 0 C0.20625 0.804375 0.4125 1.60875 0.625 2.4375 C1.83375772 5.40305566 1.83375772 5.40305566 5.57118225 6.14122009 C9.81896341 7.0803023 13.89828711 7.29941786 18.23608398 7.30297852 C19.01593155 7.31141785 19.79577911 7.31985718 20.59925842 7.32855225 C23.14821044 7.354113 25.69704732 7.36641469 28.24609375 7.37890625 C30.02589314 7.39509567 31.80568377 7.41227717 33.58546448 7.43040466 C38.24893147 7.47590197 42.91241033 7.510817 47.57598877 7.54260254 C55.06477895 7.59467569 62.55344144 7.65946876 70.04207039 7.73081779 C72.65958108 7.75369637 75.27707519 7.76993 77.89463806 7.78553772 C79.48631989 7.79893561 81.07799992 7.81254964 82.66967773 7.82641602 C83.40157318 7.82902939 84.13346863 7.83164276 84.88754272 7.83433533 C89.88635207 7.88635207 89.88635207 7.88635207 91 9 C91.1328125 10.8125 91.1328125 10.8125 91.125 13 C91.12886719 14.0828125 91.12886719 14.0828125 91.1328125 15.1875 C91 17 91 17 90 18 C87.76854495 18.10498357 85.53371795 18.13857547 83.29980469 18.14526367 C82.59877625 18.14862228 81.8977478 18.1519809 81.17547607 18.15544128 C78.84092463 18.16499242 76.50644481 18.1668976 74.171875 18.16796875 C72.54534882 18.17118251 70.91882293 18.17454668 69.29229736 18.17805481 C65.86901176 18.18405927 62.44575143 18.18589377 59.02246094 18.18530273 C54.66860603 18.18520196 50.31491733 18.19875949 45.96110153 18.21607494 C42.59270511 18.2272927 39.22434732 18.22921884 35.85593414 18.22869301 C34.25342495 18.2298621 32.65091439 18.23422265 31.04842377 18.24202538 C2.65525498 18.36714112 2.65525498 18.36714112 -5.9375 11.4375 C-7 10 -7 10 -7 8 C-9.97 9.32 -12.94 10.64 -16 12 C-16.33 10.02 -16.66 8.04 -17 6 C-18.98 6 -20.96 6 -23 6 C-17.14979433 0.69825111 -7.82239918 -3.91119959 0 0 Z " fill="#5E5E5E" transform="translate(194,338)"/>
<path d="M0 0 C0 0.66 0 1.32 0 2 C-5.75 5 -5.75 5 -8 5 C-8 5.66 -8 6.32 -8 7 C-7.34 7 -6.68 7 -6 7 C-6.66 8.65 -7.32 10.3 -8 12 C-7.01 12.33 -6.02 12.66 -5 13 C-5.78761719 13.47308594 -6.57523437 13.94617188 -7.38671875 14.43359375 C-23.19006416 23.92236975 -23.19006416 23.92236975 -37 36 C-37.66 36 -38.32 36 -39 36 C-39 36.66 -39 37.32 -39 38 C-40.51875164 39.28282906 -42.09178175 40.50177651 -43.6875 41.6875 C-48.1365649 45.14649131 -50.91601245 48.32996171 -54 53 C-54.75796875 53.75667969 -55.5159375 54.51335937 -56.296875 55.29296875 C-59.25009429 58.2504557 -61.85441063 61.34580069 -64.4375 64.625 C-65.15873047 65.54043579 -65.15873047 65.54043579 -65.89453125 66.47436523 C-69.34856862 70.95119442 -72.22629872 75.5422801 -74.78125 80.59765625 C-76.07374907 83.14537077 -77.51866603 85.5579042 -79 88 C-79.90307708 89.60009995 -80.79928159 91.20410449 -81.6875 92.8125 C-82.12449219 93.60269531 -82.56148437 94.39289063 -83.01171875 95.20703125 C-83.33785156 95.79871094 -83.66398437 96.39039063 -84 97 C-85.4606285 94.35261084 -86 93.10551666 -86 90 C-89.18490007 89.7226499 -89.18490007 89.7226499 -92 92 C-89.14716854 83.96020226 -84.3112906 76.78611944 -79.70703125 69.6640625 C-78.15305447 67.23886304 -76.66732854 64.78324618 -75.1875 62.3125 C-74.1046875 60.6728125 -74.1046875 60.6728125 -73 59 C-72.34 59 -71.68 59 -71 59 C-70.74863281 58.44183594 -70.49726563 57.88367188 -70.23828125 57.30859375 C-66.79892167 50.89641233 -61.45600025 44.81411787 -56 40 C-55.34 40 -54.68 40 -54 40 C-53.773125 39.443125 -53.54625 38.88625 -53.3125 38.3125 C-51.62449964 35.33840412 -49.53323483 33.27991135 -47 31 C-46.34 31 -45.68 31 -45 31 C-44.505 29.515 -44.505 29.515 -44 28 C-42.09615765 26.33819652 -40.20914975 24.8173522 -38.1875 23.3125 C-37.31279053 22.65157349 -37.31279053 22.65157349 -36.42041016 21.97729492 C-30.76885134 17.74816979 -24.93284195 13.82303452 -19 10 C-18.01515625 9.35804688 -17.0303125 8.71609375 -16.015625 8.0546875 C-3.5460251 0 -3.5460251 0 0 0 Z " fill="#515151" transform="translate(206,136)"/>
<path d="M0 0 C-0.33 1.32 -0.66 2.64 -1 4 C-1.99 3.67 -2.98 3.34 -4 3 C-4 3.99 -4 4.98 -4 6 C-3.34 6 -2.68 6 -2 6 C-2 6.66 -2 7.32 -2 8 C-0.02 8 1.96 8 4 8 C0.54827976 9.91382508 -2.95091597 10.95647477 -6.75 12 C-7.92046875 12.33 -9.0909375 12.66 -10.296875 13 C-23.17195526 15.98962473 -36.09453683 16.29852511 -49.24194336 16.20581055 C-51.98625677 16.1871688 -54.7302383 16.1853042 -57.47460938 16.18554688 C-59.22135711 16.18064379 -60.96810257 16.17482083 -62.71484375 16.16796875 C-63.53444077 16.16685593 -64.35403778 16.1657431 -65.19847107 16.16459656 C-70.88382308 16.11617692 -70.88382308 16.11617692 -72 15 C-72.125 11.5 -72.125 11.5 -72 8 C-71 7 -71 7 -68.97241211 6.91821289 C-68.08303955 6.9361792 -67.19366699 6.95414551 -66.27734375 6.97265625 C-65.27598389 6.98659424 -64.27462402 7.00053223 -63.24291992 7.01489258 C-62.15213135 7.03060303 -61.06134277 7.04631348 -59.9375 7.0625 C-41.35492426 7.16254258 -23.67591454 6.0396621 -5.7265625 1.0234375 C-2 0 -2 0 0 0 Z " fill="#4C4C4C" transform="translate(177,287)"/>
<path d="M0 0 C1.1482685 2.296537 1.11561175 3.58313167 1.09765625 6.1328125 C1.09443359 6.93847656 1.09121094 7.74414062 1.08789062 8.57421875 C1.07532227 9.83685547 1.07532227 9.83685547 1.0625 11.125 C1.05798828 11.97449219 1.05347656 12.82398437 1.04882812 13.69921875 C1.03702874 15.79950909 1.01909306 17.8997633 1 20 C-2.465 21.98 -2.465 21.98 -6 24 C-7.50156874 20.99686252 -7.09281204 18.20932478 -7.0625 14.875 C-7.05347656 13.59367187 -7.04445313 12.31234375 -7.03515625 10.9921875 C-7.02355469 10.00476563 -7.01195312 9.01734375 -7 8 C-15.71026298 10.07808305 -24.23355894 12.24252049 -32.64453125 15.36328125 C-35 16 -35 16 -38 15 C-37.37498605 13.31727014 -36.69822617 11.65369357 -36 10 C-35.690625 9.17371094 -35.38125 8.34742187 -35.0625 7.49609375 C-31.80728232 3.55654053 -27.67605962 3.24337955 -22.8125 2.25 C-21.89146484 2.04246094 -20.97042969 1.83492188 -20.02148438 1.62109375 C-4.21796536 -1.85590476 -4.21796536 -1.85590476 0 0 Z " fill="#4C4C4C" transform="translate(320,88)"/>
<path d="M0 0 C0.33 1.32 0.66 2.64 1 4 C3.31 3.34 5.62 2.68 8 2 C7.72352075 8.63550191 5.11553604 11.95716596 1 17 C-2.24613211 21.56487328 -4.88837038 26.37223889 -7.5390625 31.296875 C-9.30501537 34.56436 -11.14198116 37.78419816 -13 41 C-16.14624993 41.26218749 -17.61837017 41.24754367 -20.3125 39.5 C-20.869375 39.005 -21.42625 38.51 -22 38 C-21.34134932 34.24391099 -19.65208182 31.57696189 -17.625 28.375 C-16.90538528 27.23361764 -16.18669067 26.09165484 -15.46875 24.94921875 C-14.8809375 24.01601807 -14.8809375 24.01601807 -14.28125 23.06396484 C-12.85892448 20.77274154 -11.4743508 18.4611249 -10.09375 16.14453125 C-9.60181152 15.32355957 -9.10987305 14.50258789 -8.60302734 13.65673828 C-7.62420489 12.02148716 -6.65049245 10.38316554 -5.68212891 8.74169922 C-5.23272949 7.99549316 -4.78333008 7.24928711 -4.3203125 6.48046875 C-3.92086426 5.80910889 -3.52141602 5.13774902 -3.10986328 4.44604492 C-2.7436084 3.9688501 -2.37735352 3.49165527 -2 3 C-1.34 3 -0.68 3 0 3 C0 2.01 0 1.02 0 0 Z " fill="#515151" transform="translate(76,312)"/>
<path d="M0 0 C2.81297472 1.64661935 3.65375268 2.75298896 4.51953125 5.87109375 C5.25254334 10.13222995 5.06611529 13.09733778 3 17 C2.67 17.66 2.34 18.32 2 19 C2.804375 19.268125 3.60875 19.53625 4.4375 19.8125 C5.283125 20.204375 6.12875 20.59625 7 21 C7.33 21.99 7.66 22.98 8 24 C7 25 7 25 4.3125 25.3125 C0.20349758 24.92485826 -1.66341232 23.36341627 -5 21 C-6.5778125 20.4740625 -6.5778125 20.4740625 -8.1875 19.9375 C-11.15058214 18.94980595 -12.16441194 18.46159786 -14 16 C-14.43359375 13.22265625 -14.43359375 13.22265625 -14.4375 10.0625 C-14.45683594 9.02222656 -14.47617188 7.98195313 -14.49609375 6.91015625 C-13.14138088 -1.03678144 -6.68394463 -1.06765172 0 0 Z M-7 4 C-9.03684712 8.07369424 -9.0257259 10.58937864 -8 15 C-4.95086772 16.01111093 -4.95086772 16.01111093 -2 15 C-2 11.7 -2 8.4 -2 5 C-3.65 4.67 -5.3 4.34 -7 4 Z " fill="#434343" transform="translate(166,403)"/>
<path d="M0 0 C0.20625 0.804375 0.4125 1.60875 0.625 2.4375 C1.71298924 5.11989171 1.71298924 5.11989171 3.90625 5.7734375 C5.91966649 6.26261263 7.95987145 6.63804171 10 7 C10 7.33 10 7.66 10 8 C7.36 8.33 4.72 8.66 2 9 C2.99 9.66 3.98 10.32 5 11 C5 11.66 5 12.32 5 13 C2.375 14.3125 2.375 14.3125 -1 15 C-3.55733676 13.65797418 -4.96063594 12.13647663 -7 10 C-7 9.34 -7 8.68 -7 8 C-9.97 9.32 -12.94 10.64 -16 12 C-16.33 10.02 -16.66 8.04 -17 6 C-18.98 6 -20.96 6 -23 6 C-17.14979433 0.69825111 -7.82239918 -3.91119959 0 0 Z " fill="#4E4E4E" transform="translate(194,338)"/>
<path d="M0 0 C1.65 0 3.3 0 5 0 C5.33 4.62 5.66 9.24 6 14 C7.32 14 8.64 14 10 14 C10.33 9.38 10.66 4.76 11 0 C12.65 0 14.3 0 16 0 C17.14470839 3.43412516 17.0293679 5.83258258 16.8125 9.4375 C16.75707031 10.57058594 16.70164063 11.70367187 16.64453125 12.87109375 C15.88637075 16.55161837 15.02363158 17.81156735 12 20 C9.74609375 20.49609375 9.74609375 20.49609375 7.4375 20.4375 C6.67308594 20.43621094 5.90867188 20.43492187 5.12109375 20.43359375 C2.46783416 19.89121472 1.68280477 19.09312925 0 17 C-0.34057617 15.09887695 -0.34057617 15.09887695 -0.29296875 12.98828125 C-0.28330078 12.23095703 -0.27363281 11.47363281 -0.26367188 10.69335938 C-0.23853516 9.90767578 -0.21339844 9.12199219 -0.1875 8.3125 C-0.17396484 7.51521484 -0.16042969 6.71792969 -0.14648438 5.89648438 C-0.11117089 3.93070033 -0.05736447 1.96526418 0 0 Z " fill="#4E4E4E" transform="translate(172,403)"/>
<path d="M0 0 C1 2 1 2 0.625 4.375 C-1.94486512 8.52632057 -5.3514744 9.81189918 -10 11 C-14.35794468 11.30779206 -18.64024174 11.24258315 -23 11 C-23 10.01 -23 9.02 -23 8 C-23.63106429 5.98848259 -24.29373761 3.98636298 -25 2 C-23.74896484 1.92652344 -23.74896484 1.92652344 -22.47265625 1.8515625 C-17.17562598 1.49964067 -12.04187358 1.13896246 -6.875 -0.125 C-3 -1 -3 -1 0 0 Z " fill="#434343" transform="translate(178,344)"/>
<path d="M0 0 C0 0.66 0 1.32 0 2 C-5.75 5 -5.75 5 -8 5 C-8 5.66 -8 6.32 -8 7 C-7.34 7 -6.68 7 -6 7 C-6.66 8.65 -7.32 10.3 -8 12 C-7.01 12.33 -6.02 12.66 -5 13 C-7.10187532 14.31629567 -9.20631676 15.62812997 -11.3125 16.9375 C-12.20485352 17.49727539 -12.20485352 17.49727539 -13.11523438 18.06835938 C-15.72747744 19.68824194 -18.07221173 21.02407058 -21 22 C-21.433125 21.505 -21.86625 21.01 -22.3125 20.5 C-23.99740483 18.66781808 -23.99740483 18.66781808 -27 19 C-27.33 18.01 -27.66 17.02 -28 16 C-4.56916996 0 -4.56916996 0 0 0 Z " fill="#525252" transform="translate(206,136)"/>
<path d="M0 0 C-1.65 0.66 -3.3 1.32 -5 2 C-4.01 4.31 -3.02 6.62 -2 9 C-8.85402412 11.15229169 -14.80030855 12.46449622 -22 12 C-23 11 -23 11 -23.1328125 9.1875 C-23.13023438 8.465625 -23.12765625 7.74375 -23.125 7 C-23.12757812 6.278125 -23.13015625 5.55625 -23.1328125 4.8125 C-23 3 -23 3 -22 2 C-20.10762741 1.81458869 -18.21048989 1.67689299 -16.3125 1.5625 C-10.88556217 1.16980343 -5.10841724 -1.96477586 0 0 Z " fill="#4D4D4D" transform="translate(99,344)"/>
<path d="M0 0 C4.31931387 0.61611835 8.25208775 1.64238578 12.375 3.0625 C13.43460938 3.42472656 14.49421875 3.78695313 15.5859375 4.16015625 C16.38257812 4.43730469 17.17921875 4.71445312 18 5 C17.67 7.64 17.34 10.28 17 13 C13.94371936 13.97812873 12.14722553 14.00835683 9.109375 13.00390625 C8.40039062 12.77509766 7.69140625 12.54628906 6.9609375 12.31054688 C5.86652344 11.94026367 5.86652344 11.94026367 4.75 11.5625 C4.00492187 11.31951172 3.25984375 11.07652344 2.4921875 10.82617188 C0.65841765 10.22667019 -1.17122004 9.61455513 -3 9 C-2.67 7.68 -2.34 6.36 -2 5 C-1.34 5 -0.68 5 0 5 C0 4.34 0 3.68 0 3 C-0.66 2.67 -1.32 2.34 -2 2 C-1.34 2 -0.68 2 0 2 C0 1.34 0 0.68 0 0 Z " fill="#4E4E4E" transform="translate(109,308)"/>
<path d="M0 0 C0.33 2.31 0.66 4.62 1 7 C-1.3937297 7.98459071 -3.7897507 8.96278703 -6.1875 9.9375 C-6.86103516 10.21529297 -7.53457031 10.49308594 -8.22851562 10.77929688 C-15.42446409 13.69277845 -15.42446409 13.69277845 -19 14 C-21.35953094 11.64046906 -21.49141413 10.22104383 -22 7 C-14.92159866 3.12830657 -8.19305439 0 0 0 Z " fill="#494949" transform="translate(116,339)"/>
<path d="M0 0 C-0.5259375 0.928125 -0.5259375 0.928125 -1.0625 1.875 C-1.371875 2.57625 -1.68125 3.2775 -2 4 C-1.67 4.66 -1.34 5.32 -1 6 C-3.93253346 7.03551045 -6.87166938 8.05081838 -9.8125 9.0625 C-10.64587891 9.35705078 -11.47925781 9.65160156 -12.33789062 9.95507812 C-13.54155273 10.3659668 -13.54155273 10.3659668 -14.76953125 10.78515625 C-15.50792236 11.04176025 -16.24631348 11.29836426 -17.00708008 11.56274414 C-19 12 -19 12 -22 11 C-20.65671989 7.38347663 -19.31628546 4.09827927 -17 1 C-14.00390625 -0.21484375 -14.00390625 -0.21484375 -10.5625 -0.9375 C-8.86287109 -1.32228516 -8.86287109 -1.32228516 -7.12890625 -1.71484375 C-3.90057601 -2.00906111 -2.64520588 -1.77430271 0 0 Z " fill="#464646" transform="translate(304,92)"/>
<path d="M0 0 C2 1 2 1 2 1 Z M-3 1 C-2.01 1 -1.02 1 0 1 C0 1.66 0 2.32 0 3 C1.32 3.33 2.64 3.66 4 4 C4 4.66 4 5.32 4 6 C3.34 6 2.68 6 2 6 C1.89171875 6.57363281 1.7834375 7.14726562 1.671875 7.73828125 C0.47179053 11.77810049 -2.11126772 14.9799617 -5 18 C-7.875 19 -7.875 19 -10 19 C-10 18.01 -10 17.02 -10 16 C-10.99 15.67 -11.98 15.34 -13 15 C-11.69063102 12.07909997 -10.24380538 10.24380538 -8 8 C-7.67 7.01 -7.34 6.02 -7 5 C-6.34 5 -5.68 5 -5 5 C-4.34 3.68 -3.68 2.36 -3 1 Z " fill="#474747" transform="translate(157,171)"/>
<path d="M0 0 C1.2065625 0.0309375 1.2065625 0.0309375 2.4375 0.0625 C3.53401823 3.47389003 3.37965473 6.26905581 3 9.8125 C2.89816406 10.79734375 2.79632813 11.7821875 2.69140625 12.796875 C2.56572266 13.91835938 2.56572266 13.91835938 2.4375 15.0625 C4.4175 15.0625 6.3975 15.0625 8.4375 15.0625 C8.7675 16.7125 9.0975 18.3625 9.4375 20.0625 C5.4775 20.0625 1.5175 20.0625 -2.5625 20.0625 C-2.75630249 16.91693644 -2.94283742 13.77124005 -3.125 10.625 C-3.18107422 9.72716797 -3.23714844 8.82933594 -3.29492188 7.90429688 C-3.34326172 7.05029297 -3.39160156 6.19628906 -3.44140625 5.31640625 C-3.4885376 4.52564697 -3.53566895 3.7348877 -3.58422852 2.92016602 C-3.54951283 -0.0478298 -2.95307441 0.07202621 0 0 Z " fill="#525252" transform="translate(202.5625,402.9375)"/>
<path d="M0 0 C1.70884005 1.62339805 3.37446717 3.29319053 5 5 C5 7 5 7 3.42578125 8.5859375 C2.72839844 9.17632812 2.03101563 9.76671875 1.3125 10.375 C0.58675781 10.99246094 -0.13898438 11.60992187 -0.88671875 12.24609375 C-3.23449112 14.19461463 -5.59564775 16.1215998 -8 18 C-8.99 17.01 -9.98 16.02 -11 15 C-11.66 15.66 -12.32 16.32 -13 17 C-13.66 16.34 -14.32 15.68 -15 15 C-14.195625 14.236875 -13.39125 13.47375 -12.5625 12.6875 C-9.83200976 10.20569102 -9.83200976 10.20569102 -9 7 C-7.02678947 5.6273318 -5.02456848 4.29572383 -3 3 C-1.20605554 1.37648891 -1.20605554 1.37648891 0 0 Z " fill="#444444" transform="translate(162,213)"/>
<path d="M0 0 C0 3 0 3 -2 5.0625 C-2.66 5.701875 -3.32 6.34125 -4 7 C-4.22609337 9.12364481 -4.22609337 9.12364481 -2.5 10.625 C-1.7575 11.305625 -1.7575 11.305625 -1 12 C-0.34 11.67 0.32 11.34 1 11 C-0.3697164 14.99500618 -2.25722422 17.80009492 -5 21 C-6.32 20.67 -7.64 20.34 -9 20 C-9 19.34 -9 18.68 -9 18 C-12.12197478 19.3089572 -12.12197478 19.3089572 -14 22 C-16.0625 22.625 -16.0625 22.625 -18 23 C-17.34 21.35 -16.68 19.7 -16 18 C-15.34 18 -14.68 18 -14 18 C-13.74992188 17.443125 -13.49984375 16.88625 -13.2421875 16.3125 C-11.79113486 13.61116931 -10.05175748 11.38481681 -8.125 9 C-7.44695312 8.154375 -6.76890625 7.30875 -6.0703125 6.4375 C-4.14355212 4.16901231 -2.13679359 2.06971935 0 0 Z " fill="#5C5C5C" transform="translate(149,177)"/>
<path d="M0 0 C1.65 0 3.3 0 5 0 C5 4.95 5 9.9 5 15 C6.98 15 8.96 15 11 15 C11.33 15.99 11.66 16.98 12 18 C11.67 18.66 11.34 19.32 11 20 C7.37 20 3.74 20 0 20 C0 13.4 0 6.8 0 0 Z " fill="#878787" transform="translate(213,403)"/>
<path d="M0 0 C0.33 1.32 0.66 2.64 1 4 C0.01 4.33 -0.98 4.66 -2 5 C-2.17059504 8.72189454 -2.17059504 8.72189454 -1.4375 11.125 C-1 13 -1 13 -2 15 C1.3 15.33 4.6 15.66 8 16 C8 16.33 8 16.66 8 17 C-3.82830611 17.68902754 -3.82830611 17.68902754 -7.6875 15.0625 C-10.99259944 12.1147086 -10.99259944 12.1147086 -11.25 8.125 C-11.2225573 4.29674306 -11.2225573 4.29674306 -9.5 2 C-9.005 1.67 -8.51 1.34 -8 1 C-6.02 1.66 -4.04 2.32 -2 3 C-1.34 2.01 -0.68 1.02 0 0 Z " fill="#585858" transform="translate(157,339)"/>
<path d="M0 0 C2.97 0 5.94 0 9 0 C8.34 1.32 7.68 2.64 7 4 C7.33 4.99 7.66 5.98 8 7 C6.27843904 8.01303762 4.54738194 9.00994848 2.8125 10 C1.36810547 10.8353125 1.36810547 10.8353125 -0.10546875 11.6875 C-3.04888743 13.02216758 -4.81880057 13.27915461 -8 13 C-7.34 11.35 -6.68 9.7 -6 8 C-6.66 8 -7.32 8 -8 8 C-8 7.34 -8 6.68 -8 6 C-2.25 3 -2.25 3 0 3 C0 2.01 0 1.02 0 0 Z " fill="#4B4B4B" transform="translate(206,135)"/>
<path d="M0 0 C1.65 0 3.3 0 5 0 C6.13896163 4.34492771 5.93100471 8.38620785 5.5625 12.8125 C5.51029297 13.50537109 5.45808594 14.19824219 5.40429688 14.91210938 C5.27560181 16.60854437 5.13863816 18.30434863 5 20 C3.35 19.67 1.7 19.34 0 19 C0 12.73 0 6.46 0 0 Z " fill="#5D5D5D" transform="translate(191,403)"/>
<path d="M0 0 C1.65 0 3.3 0 5 0 C6.1589016 3.4767048 5.96245619 5.85580456 5.6875 9.5 C5.56955078 11.21703125 5.56955078 11.21703125 5.44921875 12.96875 C5 16 5 16 3 19 C-0.125 19.1875 -0.125 19.1875 -3 19 C-2.505 17.515 -2.505 17.515 -2 16 C-1.34 16 -0.68 16 0 16 C0 10.72 0 5.44 0 0 Z " fill="#4B4B4B" transform="translate(183,403)"/>
<path d="M0 0 C1.18613892 0.00785522 1.18613892 0.00785522 2.39624023 0.01586914 C3.67724609 0.02070313 3.67724609 0.02070313 4.98413086 0.02563477 C5.88196289 0.03401367 6.77979492 0.04239258 7.70483398 0.05102539 C8.6065332 0.05553711 9.50823242 0.06004883 10.43725586 0.06469727 C12.67234712 0.07652315 14.90730835 0.09300319 17.14233398 0.11352539 C17.14233398 0.44352539 17.14233398 0.77352539 17.14233398 1.11352539 C14.17233398 1.11352539 11.20233398 1.11352539 8.14233398 1.11352539 C8.20420898 2.28915039 8.20420898 2.28915039 8.26733398 3.48852539 C8.14233398 6.11352539 8.14233398 6.11352539 6.14233398 8.11352539 C6.80233398 8.44352539 7.46233398 8.77352539 8.14233398 9.11352539 C6.49658833 9.1404069 4.85071985 9.15986662 3.20483398 9.17602539 C2.28831055 9.18762695 1.37178711 9.19922852 0.42749023 9.21118164 C-1.85766602 9.11352539 -1.85766602 9.11352539 -2.85766602 8.11352539 C-2.98266602 4.61352539 -2.98266602 4.61352539 -2.85766602 1.11352539 C-1.85766602 0.11352539 -1.85766602 0.11352539 0 0 Z " fill="#626262" transform="translate(107.857666015625,293.886474609375)"/>
<path d="M0 0 C0.99 0 1.98 0 3 0 C4.6875 2 4.6875 2 6 4 C0.9059081 11.68490153 0.9059081 11.68490153 -2.875 13 C-3.57625 13 -4.2775 13 -5 13 C-5 12.01 -5 11.02 -5 10 C-5.99 9.67 -6.98 9.34 -8 9 C-7.67 7.68 -7.34 6.36 -7 5 C-5.824375 4.87625 -5.824375 4.87625 -4.625 4.75 C-1.85250896 4.27193661 -1.85250896 4.27193661 -0.6875 1.9375 C-0.460625 1.298125 -0.23375 0.65875 0 0 Z " fill="#4D4D4D" transform="translate(137,195)"/>
<path d="M0 0 C0.33 0.99 0.66 1.98 1 3 C2.32467746 3.6837045 3.65863633 4.34964186 5 5 C5.99 6.485 5.99 6.485 7 8 C5.35 10.97 3.7 13.94 2 17 C0 13 0 13 0 10 C-3.18490007 9.7226499 -3.18490007 9.7226499 -6 12 C-4.43358249 7.69235185 -2.31663844 3.93828536 0 0 Z " fill="#5B5B5B" transform="translate(120,216)"/>
<path d="M0 0 C3.07105488 3.07105488 3.92061805 6.69172493 4 11 C2.65776509 13.61550123 1.19496121 14.96182174 -1 17 C-1.99 16.01 -2.98 15.02 -4 14 C-3.01 13.67 -2.02 13.34 -1 13 C-1.495 12.54625 -1.99 12.0925 -2.5 11.625 C-4 10 -4 10 -4 8 C-4.66 7.67 -5.32 7.34 -6 7 C-4.02 4.69 -2.04 2.38 0 0 Z " fill="#5E5E5E" transform="translate(132,241)"/>
<path d="M0 0 C3.73487777 0.4979837 5.81237635 0.87491756 9 3 C7.68 3 6.36 3 5 3 C4.67 4.98 4.34 6.96 4 9 C4.99 8.67 5.98 8.34 7 8 C7.33 9.32 7.66 10.64 8 12 C4.37 11.01 0.74 10.02 -3 9 C-2.67 7.68 -2.34 6.36 -2 5 C-1.34 5 -0.68 5 0 5 C0 4.34 0 3.68 0 3 C-0.66 2.67 -1.32 2.34 -2 2 C-1.34 2 -0.68 2 0 2 C0 1.34 0 0.68 0 0 Z " fill="#585858" transform="translate(109,308)"/>
<path d="M0 0 C0.91007812 0.00902344 1.82015625 0.01804687 2.7578125 0.02734375 C3.45648438 0.03894531 4.15515625 0.05054688 4.875 0.0625 C3.885 1.5475 3.885 1.5475 2.875 3.0625 C3.205 3.7225 3.535 4.3825 3.875 5.0625 C2.9675 5.35125 2.06 5.64 1.125 5.9375 C-1.44702908 6.82781776 -3.73846766 7.77744413 -6.125 9.0625 C-7.125 8.0625 -7.125 8.0625 -7.1875 4.5 C-7.166875 3.365625 -7.14625 2.23125 -7.125 1.0625 C-4.60024538 -0.19987731 -2.81299534 -0.03606404 0 0 Z " fill="#4B4B4B" transform="translate(83.125,346.9375)"/>
<path d="M0 0 C1.30324219 0.00193359 1.30324219 0.00193359 2.6328125 0.00390625 C3.74269531 0.21853516 3.74269531 0.21853516 4.875 0.4375 C5.535 1.4275 6.195 2.4175 6.875 3.4375 C4.99440967 5.31809033 2.37609962 4.56111218 -0.1171875 4.5703125 C-2.125 4.4375 -2.125 4.4375 -5.125 3.4375 C-5.125 4.4275 -5.125 5.4175 -5.125 6.4375 C-6.115 6.4375 -7.105 6.4375 -8.125 6.4375 C-8.125 9.7375 -8.125 13.0375 -8.125 16.4375 C-8.455 16.4375 -8.785 16.4375 -9.125 16.4375 C-9.23341951 14.52208862 -9.31078079 12.60490227 -9.375 10.6875 C-9.42140625 9.62015625 -9.4678125 8.5528125 -9.515625 7.453125 C-9.125 4.4375 -9.125 4.4375 -7.4296875 2.07421875 C-4.71001077 0.14278731 -3.30424545 -0.07397564 0 0 Z " fill="#595959" transform="translate(161.125,402.5625)"/>
<path d="M0 0 C0.33 0.99 0.66 1.98 1 3 C1.99 3 2.98 3 4 3 C5.68236471 3.62599617 7.3523962 4.28752268 9 5 C7.88625 5.86625 7.88625 5.86625 6.75 6.75 C4.00801381 8.90659314 4.00801381 8.90659314 1.8125 11.25 C0 13 0 13 -2 13 C-2.33 13.66 -2.66 14.32 -3 15 C-1.7826087 9.7826087 -1.7826087 9.7826087 0 8 C-0.66 7.67 -1.32 7.34 -2 7 C-2 6.34 -2 5.68 -2 5 C-3.32 5.33 -4.64 5.66 -6 6 C-4 4 -2 2 0 0 Z " fill="#646464" transform="translate(183,192)"/>
<path d="M0 0 C1.2065625 0.0309375 1.2065625 0.0309375 2.4375 0.0625 C3.89356519 4.58342968 2.70782841 7.57898796 1.4375 12.0625 C0.7775 12.0625 0.1175 12.0625 -0.5625 12.0625 C-0.8925 12.7225 -1.2225 13.3825 -1.5625 14.0625 C-3.36957581 12.25542419 -2.98557598 9.50866525 -3.1875 7.0625 C-3.28289062 5.969375 -3.37828125 4.87625 -3.4765625 3.75 C-3.50492188 2.863125 -3.53328125 1.97625 -3.5625 1.0625 C-2.5625 0.0625 -2.5625 0.0625 0 0 Z " fill="#3B3B3B" transform="translate(202.5625,402.9375)"/>
<path d="M0 0 C0.66 0.99 1.32 1.98 2 3 C2.99 2.34 3.98 1.68 5 1 C7 4 7 4 6.8125 6 C5.90059285 8.24469451 4.81466246 9.42203265 3 11 C1.02 9.68 -0.96 8.36 -3 7 C-2.67 5.35 -2.34 3.7 -2 2 C-1.34 2 -0.68 2 0 2 C0 1.34 0 0.68 0 0 Z " fill="#525252" transform="translate(212,146)"/>
<path d="M0 0 C0 0.66 0 1.32 0 2 C0.31478446 3.33783393 0.64587656 4.67203709 1 6 C-0.6875 7.5625 -0.6875 7.5625 -3 9 C-5.75 8.6875 -5.75 8.6875 -8 8 C-8 5.66666667 -8 3.33333333 -8 1 C-2.25 -1.125 -2.25 -1.125 0 0 Z " fill="#4A4A4A" transform="translate(252,146)"/>
<path d="M0 0 C0.99 0 1.98 0 3 0 C2.34 4.29 1.68 8.58 1 13 C0.34 13 -0.32 13 -1 13 C-1.33 13.66 -1.66 14.32 -2 15 C-3 14 -3 14 -3.09765625 11.49609375 C-3.08605469 10.48675781 -3.07445312 9.47742188 -3.0625 8.4375 C-3.05347656 7.42558594 -3.04445312 6.41367187 -3.03515625 5.37109375 C-3.02355469 4.58863281 -3.01195312 3.80617188 -3 3 C-2.01 3 -1.02 3 0 3 C0 2.01 0 1.02 0 0 Z " fill="#3E3E3E" transform="translate(156,406)"/>
<path d="M0 0 C3.54971796 0.60852308 6.76693609 1.38346804 10 3 C10.33 3.99 10.66 4.98 11 6 C10 7 10 7 7.25 7.25 C3.66642963 6.97434074 1.90141996 6.04806115 -1 4 C-0.67 2.68 -0.34 1.36 0 0 Z " fill="#5A5A5A" transform="translate(163,421)"/>
<path d="M0 0 C1.98 0.66 3.96 1.32 6 2 C5.67 3.98 5.34 5.96 5 8 C3.35 8.33 1.7 8.66 0 9 C0 8.01 0 7.02 0 6 C-0.99 5.67 -1.98 5.34 -3 5 C-1.125 1.125 -1.125 1.125 0 0 Z " fill="#454545" transform="translate(147,181)"/>
<path d="M0 0 C1.32 0 2.64 0 4 0 C3.67 1.65 3.34 3.3 3 5 C3.66 5 4.32 5 5 5 C5 5.99 5 6.98 5 8 C2.69 8 0.38 8 -2 8 C-2 7.34 -2 6.68 -2 6 C-2.66 6 -3.32 6 -4 6 C-4 5.01 -4 4.02 -4 3 C-3.01 3 -2.02 3 -1 3 C-0.67 2.01 -0.34 1.02 0 0 Z " fill="#404040" transform="translate(177,287)"/>
<path d="M0 0 C0.66 0.66 1.32 1.32 2 2 C4.58354218 2.16687448 4.58354218 2.16687448 7 2 C7 4 7 4 5.5 5.625 C5.005 6.07875 4.51 6.5325 4 7 C5.32 7.33 6.64 7.66 8 8 C6.56344146 8.08131463 5.1255517 8.13933559 3.6875 8.1875 C2.48673828 8.23970703 2.48673828 8.23970703 1.26171875 8.29296875 C-1.47851584 7.93801608 -2.29171079 7.10633718 -4 5 C-3.67 4.01 -3.34 3.02 -3 2 C-3 2.66 -3 3.32 -3 4 C-2.34 3.67 -1.68 3.34 -1 3 C-0.67 2.01 -0.34 1.02 0 0 Z " fill="#616161" transform="translate(176,415)"/>
<path d="M0 0 C1.32 0.33 2.64 0.66 4 1 C3.67 5.29 3.34 9.58 3 14 C2.34 14 1.68 14 1 14 C0.67 14.66 0.34 15.32 0 16 C0 10.72 0 5.44 0 0 Z " fill="#3E3E3E" transform="translate(214,404)"/>
<path d="M0 0 C0.33 2.64 0.66 5.28 1 8 C-0.32 7.34 -1.64 6.68 -3 6 C-3.33 6.99 -3.66 7.98 -4 9 C-4.33 9 -4.66 9 -5 9 C-5.66 6.03 -6.32 3.06 -7 0 C-3 -1 -3 -1 0 0 Z " fill="#3F3F3F" transform="translate(170,407)"/>
<path d="M0 0 C0.33 1.65 0.66 3.3 1 5 C0.01 4.67 -0.98 4.34 -2 4 C-2 5.32 -2 6.64 -2 8 C-3.65 8 -5.3 8 -7 8 C-6.34 6.35 -5.68 4.7 -5 3 C-5.66 3 -6.32 3 -7 3 C-7 2.34 -7 1.68 -7 1 C-4.53721199 -0.231394 -2.7204945 -0.07159196 0 0 Z " fill="#414141" transform="translate(205,140)"/>
<path d="M0 0 C0.66 0 1.32 0 2 0 C2 0.66 2 1.32 2 2 C2.99 2.33 3.98 2.66 5 3 C5 3.66 5 4.32 5 5 C4.34 5.66 3.68 6.32 3 7 C3 8.32 3 9.64 3 11 C2.34 11 1.68 11 1 11 C0.87625 10.195625 0.7525 9.39125 0.625 8.5625 C0.315625 7.2940625 0.315625 7.2940625 0 6 C-0.66 5.67 -1.32 5.34 -2 5 C-1.125 1.125 -1.125 1.125 0 0 Z " fill="#414141" transform="translate(126,249)"/>
<path d="M0 0 C0.6875 1.75 0.6875 1.75 1 4 C-0.4375 6.25 -0.4375 6.25 -2 8 C-4.475 7.01 -4.475 7.01 -7 6 C-6.75 4.125 -6.75 4.125 -6 2 C-3.85331506 0.61504198 -2.56128588 0 0 0 Z " fill="#4A4A4A" transform="translate(156,335)"/>
<path d="M0 0 C-5.98578764 3.20170036 -10.55491584 4.13675917 -17.3125 4.0625 C-18.38113281 4.05347656 -19.44976562 4.04445313 -20.55078125 4.03515625 C-21.35902344 4.02355469 -22.16726562 4.01195312 -23 4 C-22.67 3.34 -22.34 2.68 -22 2 C-19.48828125 1.65625 -19.48828125 1.65625 -16.3125 1.5 C-10.8816793 1.15211825 -5.09870163 -1.96103909 0 0 Z " fill="#9B9B9B" transform="translate(99,344)"/>
<path d="M0 0 C0.33 0 0.66 0 1 0 C1.33 1.65 1.66 3.3 2 5 C2.474375 4.505 2.94875 4.01 3.4375 3.5 C5 2 5 2 6 2 C6 4.31 6 6.62 6 9 C5.01 9.495 5.01 9.495 4 10 C1.875 9.0625 1.875 9.0625 0 8 C0 5.36 0 2.72 0 0 Z " fill="#6A6A6A" transform="translate(164,410)"/>
<path d="M0 0 C0.33 2.31 0.66 4.62 1 7 C-1.31 6.01 -3.62 5.02 -6 4 C-6 2.68 -6 1.36 -6 0 C-3 -1 -3 -1 0 0 Z " fill="#464646" transform="translate(290,185)"/>
<path d="M0 0 C2.125 0.375 2.125 0.375 4 1 C2.515 2.485 2.515 2.485 1 4 C1.33 4.99 1.66 5.98 2 7 C1.2575 6.814375 0.515 6.62875 -0.25 6.4375 C-2.94990963 6.00796892 -4.44631077 6.14877026 -7 7 C-4.66666667 4.66666667 -2.33333333 2.33333333 0 0 Z " fill="#666666" transform="translate(168,159)"/>
<path d="M0 0 C0.99 0.99 1.98 1.98 3 3 C2.67 3.99 2.34 4.98 2 6 C-1.0625 7.1875 -1.0625 7.1875 -4 8 C-4.33 7.34 -4.66 6.68 -5 6 C-4.34 6 -3.68 6 -3 6 C-2.87625 5.38125 -2.7525 4.7625 -2.625 4.125 C-2 2 -2 2 0 0 Z " fill="#585858" transform="translate(279,129)"/>
<path d="M0 0 C0.99 0.33 1.98 0.66 3 1 C2.34 2.65 1.68 4.3 1 6 C1.99 6.33 2.98 6.66 4 7 C2.02 7.99 0.04 8.98 -2 10 C-1.814375 9.236875 -1.62875 8.47375 -1.4375 7.6875 C-0.77180827 4.91032625 -0.77180827 4.91032625 -2 2 C-1.34 1.34 -0.68 0.68 0 0 Z " fill="#4E4E4E" transform="translate(197,142)"/>
<path d="M0 0 C0.66 0 1.32 0 2 0 C2.93065133 2.60582371 3.14917407 3.64198224 2.0625 6.25 C1.5365625 7.11625 1.5365625 7.11625 1 8 C0.34 8 -0.32 8 -1 8 C-1.625 5.125 -1.625 5.125 -2 2 C-1.34 1.34 -0.68 0.68 0 0 Z " fill="#424242" transform="translate(174,411)"/>
<path d="M0 0 C1.32 0 2.64 0 4 0 C5.2077558 3.62326739 4.54311128 4.64146369 3 8 C2.01 8 1.02 8 0 8 C0 5.36 0 2.72 0 0 Z " fill="#3E3E3E" transform="translate(184,403)"/>
<path d="M0 0 C0.515625 0.2475 1.03125 0.495 1.5625 0.75 C-0.7807476 3.46323406 -2.97045129 4.7965616 -6.4375 5.75 C-7.4275 5.09 -8.4175 4.43 -9.4375 3.75 C-3.0375 -0.31153846 -3.0375 -0.31153846 0 0 Z M-8.4375 5.75 C-6.4375 6.75 -6.4375 6.75 -6.4375 6.75 Z " fill="#575757" transform="translate(241.4375,253.25)"/>
<path d="M0 0 C0.99 0 1.98 0 3 0 C2.67 2.64 2.34 5.28 2 8 C1.01 8 0.02 8 -1 8 C-1.66 6.35 -2.32 4.7 -3 3 C-2.01 3 -1.02 3 0 3 C0 2.01 0 1.02 0 0 Z " fill="#555555" transform="translate(156,406)"/>
<path d="M0 0 C0 0.33 0 0.66 0 1 C-2.45616825 1.69621314 -4.9144123 2.38224628 -7.375 3.0625 C-8.42300781 3.36124023 -8.42300781 3.36124023 -9.4921875 3.66601562 C-14.7734375 5.11328125 -14.7734375 5.11328125 -17 4 C-11.06561592 0.92291196 -6.70126536 -0.48736475 0 0 Z " fill="#9C9C9C" transform="translate(192,337)"/>
<path d="M0 0 C1.65 0 3.3 0 5 0 C5.33 1.32 5.66 2.64 6 4 C3.69 4 1.38 4 -1 4 C-0.67 2.68 -0.34 1.36 0 0 Z M3 4 C3.33 4.66 3.66 5.32 4 6 C3.34 5.67 2.68 5.34 2 5 C2.33 4.67 2.66 4.34 3 4 Z " fill="#5D5D5D" transform="translate(200,403)"/>
<path d="M0 0 C1.4540625 0.0309375 1.4540625 0.0309375 2.9375 0.0625 C3.2675 1.0525 3.5975 2.0425 3.9375 3.0625 C2.9375 4.0625 2.9375 4.0625 0.5 4.3125 C-0.345625 4.23 -1.19125 4.1475 -2.0625 4.0625 C-2.7225 3.0725 -3.3825 2.0825 -4.0625 1.0625 C-3.0625 0.0625 -3.0625 0.0625 0 0 Z " fill="#545454" transform="translate(221.0625,417.9375)"/>
<path d="M0 0 C1.98 0.495 1.98 0.495 4 1 C3.67 1.99 3.34 2.98 3 4 C2.01 4 1.02 4 0 4 C0 7.3 0 10.6 0 14 C-0.33 14 -0.66 14 -1 14 C-1.02694851 12.04174127 -1.04637218 10.08337774 -1.0625 8.125 C-1.07410156 7.03445313 -1.08570313 5.94390625 -1.09765625 4.8203125 C-1 2 -1 2 0 0 Z " fill="#929292" transform="translate(153,405)"/>
<path d="M0 0 C-1.32 1.65 -2.64 3.3 -4 5 C-4.99 4.67 -5.98 4.34 -7 4 C-6.6875 2.0625 -6.6875 2.0625 -6 0 C-3 -1 -3 -1 0 0 Z " fill="#414141" transform="translate(201,281)"/>
<path d="M0 0 C0 0.66 0 1.32 0 2 C-1.24176695 2.70226141 -2.49385599 3.38629109 -3.75 4.0625 C-4.79414063 4.63677734 -4.79414063 4.63677734 -5.859375 5.22265625 C-8.36140628 6.1312406 -9.5332355 5.88336837 -12 5 C-10.37750059 4.16180842 -8.75191503 3.3295884 -7.125 2.5 C-6.22007812 2.0359375 -5.31515625 1.571875 -4.3828125 1.09375 C-2 0 -2 0 0 0 Z " fill="#787878" transform="translate(206,136)"/>
<path d="M0 0 C0.66 0.33 1.32 0.66 2 1 C-3.625 5.875 -3.625 5.875 -7 7 C-7.66 6.34 -8.32 5.68 -9 5 C-7.54735962 4.1361871 -6.0876837 3.28419546 -4.625 2.4375 C-3.40683594 1.72400391 -3.40683594 1.72400391 -2.1640625 0.99609375 C-1.44992188 0.66738281 -0.73578125 0.33867187 0 0 Z " fill="#7D7D7D" transform="translate(133,327)"/>
<path d="M0 0 C-0.66 1.32 -1.32 2.64 -2 4 C-6.29 3.67 -10.58 3.34 -15 3 C-15 2.67 -15 2.34 -15 2 C-14.22914063 1.93941406 -13.45828125 1.87882812 -12.6640625 1.81640625 C-11.15972656 1.69072266 -11.15972656 1.69072266 -9.625 1.5625 C-8.62726563 1.48128906 -7.62953125 1.40007812 -6.6015625 1.31640625 C-4.12756995 1.01551526 -2.44698344 0 0 0 Z " fill="#9A9A9A" transform="translate(170,344)"/>
<path d="M0 0 C1.32 0.66 2.64 1.32 4 2 C1.33440687 3.77706209 -1.0280615 4.87548273 -4 6 C-2.84826645 3.53199953 -1.95216435 1.95216435 0 0 Z " fill="#585858" transform="translate(207,281)"/>
<path d="M0 0 C0.66 0 1.32 0 2 0 C2.33 0.99 2.66 1.98 3 3 C2.34 3 1.68 3 1 3 C0.67 3.99 0.34 4.98 0 6 C-0.66 6.99 -1.32 7.98 -2 9 C-2.125 5.625 -2.125 5.625 -2 2 C-1.34 1.34 -0.68 0.68 0 0 Z " fill="#424242" transform="translate(104,257)"/>
<path d="M0 0 C2 3 2 3 2 5 C0.35 5.66 -1.3 6.32 -3 7 C-3 3.48283697 -2.17554415 2.62878252 0 0 Z " fill="#3F3F3F" transform="translate(253,243)"/>
<path d="M0 0 C0.33 1.32 0.66 2.64 1 4 C-1.3125 6.0625 -1.3125 6.0625 -4 8 C-4.99 7.67 -5.98 7.34 -7 7 C-4.69 4.69 -2.38 2.38 0 0 Z " fill="#5E5E5E" transform="translate(262,232)"/>
<path d="M0 0 C0.66 0 1.32 0 2 0 C0.50902342 3.7952131 -1.75700849 5.61042731 -5 8 C-5.66 7.67 -6.32 7.34 -7 7 C-6.01 6.67 -5.02 6.34 -4 6 C-3.67 5.01 -3.34 4.02 -3 3 C-2.34 3 -1.68 3 -1 3 C-0.67 2.01 -0.34 1.02 0 0 Z " fill="#838383" transform="translate(251,243)"/>
<path d="M0 0 C0.66 0.99 1.32 1.98 2 3 C-2.625 5.125 -2.625 5.125 -6 4 C-5.67 3.01 -5.34 2.02 -5 1 C-3.35 1.33 -1.7 1.66 0 2 C0 1.34 0 0.68 0 0 Z " fill="#404040" transform="translate(263,106)"/>
<path d="M0 0 C-0.8125 2.4375 -0.8125 2.4375 -2 5 C-2.99 5.33 -3.98 5.66 -5 6 C-5 5.34 -5 4.68 -5 4 C-5.66 3.67 -6.32 3.34 -7 3 C-2.25 0 -2.25 0 0 0 Z " fill="#616161" transform="translate(265,103)"/>
<path d="M0 0 C0.33 0.66 0.66 1.32 1 2 C1.66 2.33 2.32 2.66 3 3 C2.67 4.32 2.34 5.64 2 7 C0.68 6.67 -0.64 6.34 -2 6 C-2 5.01 -2 4.02 -2 3 C-1.34 3 -0.68 3 0 3 C0 2.01 0 1.02 0 0 Z " fill="#686868" transform="translate(157,416)"/>
<path d="M0 0 C1.65 0 3.3 0 5 0 C5 1.65 5 3.3 5 5 C4.34 4.34 3.68 3.68 3 3 C2.01 3.33 1.02 3.66 0 4 C0 2.68 0 1.36 0 0 Z " fill="#474747" transform="translate(172,403)"/>
<path d="M0 0 C2.31 0 4.62 0 7 0 C7.33 1.32 7.66 2.64 8 4 C5.36 3.34 2.72 2.68 0 2 C0 1.34 0 0.68 0 0 Z " fill="#686868" transform="translate(109,316)"/>
<path d="M0 0 C-0.33 1.32 -0.66 2.64 -1 4 C-3.64 3.67 -6.28 3.34 -9 3 C-3.2 0 -3.2 0 0 0 Z " fill="#6D6D6E" transform="translate(177,287)"/>
<path d="M0 0 C0.66 0.33 1.32 0.66 2 1 C1.01 1.33 0.02 1.66 -1 2 C-0.67 2.99 -0.34 3.98 0 5 C-2.31 4.67 -4.62 4.34 -7 4 C-4.66603411 2.44402274 -2.57343171 1.07918104 0 0 Z " fill="#5E5E5E" transform="translate(210,274)"/>
<path d="M0 0 C1.98 0.495 1.98 0.495 4 1 C4 2.32 4 3.64 4 5 C2.35 5 0.7 5 -1 5 C-0.67 3.35 -0.34 1.7 0 0 Z " fill="#3F3F3F" transform="translate(226,267)"/>
<path d="M0 0 C2.0625 0.4375 2.0625 0.4375 4 1 C4 1.66 4 2.32 4 3 C3.34 3 2.68 3 2 3 C2 3.99 2 4.98 2 6 C1.34 6 0.68 6 0 6 C-0.38218767 4.34385343 -0.71395102 2.67542976 -1 1 C-0.67 0.67 -0.34 0.34 0 0 Z " fill="#424242" transform="translate(157,174)"/>
<path d="M0 0 C0 0.66 0 1.32 0 2 C-1.98 2.66 -3.96 3.32 -6 4 C-6.33 3.01 -6.66 2.02 -7 1 C-4.53721199 -0.231394 -2.7204945 -0.07159196 0 0 Z " fill="#555555" transform="translate(199,349)"/>
<path d="M0 0 C-2.75 1.625 -2.75 1.625 -6 3 C-8.375 2.1875 -8.375 2.1875 -10 1 C-3.71428571 -1.42857143 -3.71428571 -1.42857143 0 0 Z " fill="#848484" transform="translate(99,344)"/>
<path d="M0 0 C1.98 0.495 1.98 0.495 4 1 C2.68 2.32 1.36 3.64 0 5 C-0.33 4.01 -0.66 3.02 -1 2 C-0.67 1.34 -0.34 0.68 0 0 Z M-2 4 C-1.34 4.66 -0.68 5.32 0 6 C-0.99 6.495 -0.99 6.495 -2 7 C-2 6.01 -2 5.02 -2 4 Z " fill="#464646" transform="translate(116,295)"/>
<path d="M0 0 C0.33 0.66 0.66 1.32 1 2 C-0.98 4.97 -0.98 4.97 -3 8 C-3.66 7.67 -4.32 7.34 -5 7 C-4.67 6.01 -4.34 5.02 -4 4 C-3.34 4 -2.68 4 -2 4 C-1.34 2.68 -0.68 1.36 0 0 Z " fill="#616161" transform="translate(154,172)"/>
<path d="" fill="#FFFFFF" transform="translate(0,0)"/>
<path d="" fill="#FFFFFF" transform="translate(0,0)"/>
<path d="" fill="#FFFFFF" transform="translate(0,0)"/>
<path d="" fill="#FFFFFF" transform="translate(0,0)"/>
<path d="" fill="#FFFFFF" transform="translate(0,0)"/>
<path d="" fill="#FFFFFF" transform="translate(0,0)"/>
<path d="" fill="#FFFFFF" transform="translate(0,0)"/>
<path d="" fill="#FFFFFF" transform="translate(0,0)"/>
<path d="" fill="#FFFFFF" transform="translate(0,0)"/>
<path d="" fill="#FFFFFF" transform="translate(0,0)"/>
<path d="" fill="#FFFFFF" transform="translate(0,0)"/>
<path d="" fill="#FFFFFF" transform="translate(0,0)"/>
<path d="" fill="#FFFFFF" transform="translate(0,0)"/>
<path d="" fill="#FFFFFF" transform="translate(0,0)"/>
<path d="" fill="#FFFFFF" transform="translate(0,0)"/>
<path d="" fill="#FFFFFF" transform="translate(0,0)"/>
<path d="" fill="#FFFFFF" transform="translate(0,0)"/>
<path d="" fill="#FFFFFF" transform="translate(0,0)"/>
<path d="" fill="#FFFFFF" transform="translate(0,0)"/>
<path d="" fill="#FFFFFF" transform="translate(0,0)"/>
<path d="" fill="#FFFFFF" transform="translate(0,0)"/>
<path d="" fill="#FFFFFF" transform="translate(0,0)"/>
<path d="" fill="#FFFFFF" transform="translate(0,0)"/>
<path d="" fill="#FFFFFF" transform="translate(0,0)"/>
<path d="" fill="#FFFFFF" transform="translate(0,0)"/>
<path d="" fill="#FFFFFF" transform="translate(0,0)"/>
<path d="" fill="#FFFFFF" transform="translate(0,0)"/>
<path d="" fill="#FFFFFF" transform="translate(0,0)"/>
<path d="" fill="#FFFFFF" transform="translate(0,0)"/>
<path d="" fill="#FFFFFF" transform="translate(0,0)"/>
<path d="" fill="#FFFFFF" transform="translate(0,0)"/>
<path d="" fill="#FFFFFF" transform="translate(0,0)"/>
<path d="" fill="#FFFFFF" transform="translate(0,0)"/>
<path d="" fill="#FFFFFF" transform="translate(0,0)"/>
<path d="" fill="#FFFFFF" transform="translate(0,0)"/>
<path d="" fill="#FFFFFF" transform="translate(0,0)"/>
<path d="" fill="#FFFFFF" transform="translate(0,0)"/>
<path d="" fill="#FFFFFF" transform="translate(0,0)"/>
<path d="" fill="#FFFFFF" transform="translate(0,0)"/>
<path d="" fill="#FFFFFF" transform="translate(0,0)"/>
<path d="" fill="#FFFFFF" transform="translate(0,0)"/>
<path d="" fill="#FFFFFF" transform="translate(0,0)"/>
<path d="" fill="#FFFFFF" transform="translate(0,0)"/>
<path d="" fill="#FFFFFF" transform="translate(0,0)"/>
<path d="" fill="#FFFFFF" transform="translate(0,0)"/>
<path d="" fill="#FFFFFF" transform="translate(0,0)"/>
<path d="" fill="#FFFFFF" transform="translate(0,0)"/>
<path d="" fill="#FFFFFF" transform="translate(0,0)"/>
<path d="" fill="#FFFFFF" transform="translate(0,0)"/>
<path d="" fill="#FFFFFF" transform="translate(0,0)"/>
<path d="" fill="#FFFFFF" transform="translate(0,0)"/>
<path d="" fill="#FFFFFF" transform="translate(0,0)"/>
<path d="" fill="#FFFFFF" transform="translate(0,0)"/>
<path d="" fill="#FFFFFF" transform="translate(0,0)"/>
<path d="" fill="#FFFFFF" transform="translate(0,0)"/>
<path d="" fill="#FFFFFF" transform="translate(0,0)"/>
<path d="" fill="#FFFFFF" transform="translate(0,0)"/>
<path d="" fill="#FFFFFF" transform="translate(0,0)"/>
<path d="" fill="#FFFFFF" transform="translate(0,0)"/>
<path d="" fill="#FFFFFF" transform="translate(0,0)"/>
<path d="" fill="#FFFFFF" transform="translate(0,0)"/>
<path d="" fill="#FFFFFF" transform="translate(0,0)"/>
<path d="" fill="#FFFFFF" transform="translate(0,0)"/>
<path d="" fill="#FFFFFF" transform="translate(0,0)"/>
<path d="" fill="#FFFFFF" transform="translate(0,0)"/>
<path d="" fill="#FFFFFF" transform="translate(0,0)"/>
<path d="" fill="#FFFFFF" transform="translate(0,0)"/>
<path d="" fill="#FFFFFF" transform="translate(0,0)"/>
<path d="" fill="#FFFFFF" transform="translate(0,0)"/>
<path d="" fill="#FFFFFF" transform="translate(0,0)"/>
<path d="" fill="#FFFFFF" transform="translate(0,0)"/>
<path d="" fill="#FFFFFF" transform="translate(0,0)"/>
<path d="" fill="#FFFFFF" transform="translate(0,0)"/>
<path d="" fill="#FFFFFF" transform="translate(0,0)"/>
<path d="" fill="#FFFFFF" transform="translate(0,0)"/>
<path d="" fill="#FFFFFF" transform="translate(0,0)"/>
<path d="" fill="#FFFFFF" transform="translate(0,0)"/>
<path d="" fill="#FFFFFF" transform="translate(0,0)"/>
<path d="" fill="#FFFFFF" transform="translate(0,0)"/>
<path d="" fill="#FFFFFF" transform="translate(0,0)"/>
<path d="" fill="#FFFFFF" transform="translate(0,0)"/>
<path d="" fill="#FFFFFF" transform="translate(0,0)"/>
<path d="" fill="#FFFFFF" transform="translate(0,0)"/>
<path d="" fill="#FFFFFF" transform="translate(0,0)"/>
<path d="" fill="#FFFFFF" transform="translate(0,0)"/>
<path d="" fill="#FFFFFF" transform="translate(0,0)"/>
<path d="" fill="#FFFFFF" transform="translate(0,0)"/>
<path d="" fill="#FFFFFF" transform="translate(0,0)"/>
<path d="" fill="#FFFFFF" transform="translate(0,0)"/>
<path d="" fill="#FFFFFF" transform="translate(0,0)"/>
<path d="" fill="#FFFFFF" transform="translate(0,0)"/>
<path d="" fill="#FFFFFF" transform="translate(0,0)"/>
<path d="" fill="#FFFFFF" transform="translate(0,0)"/>
<path d="" fill="#FFFFFF" transform="translate(0,0)"/>
<path d="" fill="#FFFFFF" transform="translate(0,0)"/>
<path d="" fill="#FFFFFF" transform="translate(0,0)"/>
<path d="" fill="#FFFFFF" transform="translate(0,0)"/>
<path d="" fill="#FFFFFF" transform="translate(0,0)"/>
<path d="" fill="#FFFFFF" transform="translate(0,0)"/>
<path d="" fill="#FFFFFF" transform="translate(0,0)"/>
<path d="" fill="#FFFFFF" transform="translate(0,0)"/>
</svg>
